G04*
G04 #@! TF.GenerationSoftware,Altium Limited,Altium Designer,24.9.1 (31)*
G04*
G04 Layer_Color=65535*
%FSLAX44Y44*%
%MOMM*%
G71*
G04*
G04 #@! TF.SameCoordinates,2F21DDDD-2005-49F8-8A8E-0C037A8DA06E*
G04*
G04*
G04 #@! TF.FilePolarity,Positive*
G04*
G01*
G75*
%ADD10C,0.2500*%
%ADD11C,0.0508*%
%ADD12C,0.1270*%
%ADD13C,0.2000*%
%ADD14C,0.5000*%
%ADD15C,0.4000*%
D10*
X351325Y191295D02*
G03*
X351325Y191295I-1250J0D01*
G01*
X22840Y154020D02*
G03*
X22840Y154020I-1250J0D01*
G01*
X21950Y44682D02*
G03*
X21950Y44682I-1250J0D01*
G01*
D11*
X344791Y135352D02*
G03*
X344791Y154208I-22211J9428D01*
G01*
X313152Y122569D02*
G03*
X332008Y122569I9428J22211D01*
G01*
X332010Y166992D02*
G03*
X300369Y135351I-9429J-22212D01*
G01*
X248271Y130272D02*
G03*
X248271Y149128I-22211J9428D01*
G01*
X216632Y117489D02*
G03*
X235488Y117489I9428J22211D01*
G01*
X235490Y161912D02*
G03*
X203849Y130271I-9429J-22212D01*
G01*
D12*
X351790Y144780D02*
G03*
X351790Y144780I-29210J0D01*
G01*
X255270Y139700D02*
G03*
X255270Y139700I-29210J0D01*
G01*
X283210Y149860D02*
X293815D01*
X283210Y139700D02*
X293815D01*
X283210D02*
Y149860D01*
X186690Y144780D02*
X197295D01*
X186690Y134620D02*
X197295D01*
X186690D02*
Y144780D01*
D13*
X336625Y249595D02*
X363525D01*
X336625Y195795D02*
Y249595D01*
Y195795D02*
X363525D01*
Y249595D01*
X8140Y212320D02*
X35040D01*
X8140Y158520D02*
Y212320D01*
Y158520D02*
X35040D01*
Y212320D01*
X7250Y102982D02*
X34150D01*
X7250Y49182D02*
Y102982D01*
Y49182D02*
X34150D01*
Y102982D01*
D14*
X357708Y178710D02*
X364135D01*
X366278Y179424D01*
X366992Y180138D01*
X367706Y181567D01*
Y183709D01*
X366992Y185137D01*
X366278Y185851D01*
X364135Y186565D01*
X357708D01*
Y171569D01*
X371062Y183709D02*
X372491Y184423D01*
X374633Y186565D01*
Y171569D01*
X16764Y237773D02*
X23191D01*
X25334Y238487D01*
X26048Y239202D01*
X26762Y240630D01*
Y242772D01*
X26048Y244200D01*
X25334Y244915D01*
X23191Y245629D01*
X16764D01*
Y230632D01*
X30832Y242058D02*
Y242772D01*
X31546Y244200D01*
X32261Y244915D01*
X33689Y245629D01*
X36546D01*
X37974Y244915D01*
X38688Y244200D01*
X39402Y242772D01*
Y241344D01*
X38688Y239916D01*
X37260Y237773D01*
X30118Y230632D01*
X40116D01*
X16002Y128553D02*
X22429D01*
X24572Y129268D01*
X25286Y129982D01*
X26000Y131410D01*
Y133552D01*
X25286Y134980D01*
X24572Y135695D01*
X22429Y136409D01*
X16002D01*
Y121412D01*
X30784Y136409D02*
X38640D01*
X34355Y130696D01*
X36498D01*
X37926Y129982D01*
X38640Y129268D01*
X39354Y127125D01*
Y125697D01*
X38640Y123554D01*
X37212Y122126D01*
X35069Y121412D01*
X32927D01*
X30784Y122126D01*
X30070Y122840D01*
X29356Y124269D01*
X182921Y170262D02*
Y180258D01*
X180422Y182758D01*
X175423D01*
X172924Y180258D01*
Y170262D01*
X175423Y167762D01*
X180422D01*
X177922Y172761D02*
X182921Y167762D01*
X180422D02*
X182921Y170262D01*
X197916Y167762D02*
X187919D01*
X197916Y177759D01*
Y180258D01*
X195417Y182758D01*
X190418D01*
X187919Y180258D01*
X287020Y171532D02*
Y181528D01*
X284521Y184028D01*
X279522D01*
X277023Y181528D01*
Y171532D01*
X279522Y169032D01*
X284521D01*
X282022Y174031D02*
X287020Y169032D01*
X284521D02*
X287020Y171532D01*
X292018Y169032D02*
X297017D01*
X294518D01*
Y184028D01*
X292018Y181528D01*
D15*
X52557Y278077D02*
X50558Y280076D01*
X46559D01*
X44560Y278077D01*
Y270079D01*
X46559Y268080D01*
X50558D01*
X52557Y270079D01*
X56556Y280076D02*
Y270079D01*
X58555Y268080D01*
X62554D01*
X64553Y270079D01*
Y280076D01*
X76550Y278077D02*
X74550Y280076D01*
X70552D01*
X68552Y278077D01*
Y276077D01*
X70552Y274078D01*
X74550D01*
X76550Y272079D01*
Y270079D01*
X74550Y268080D01*
X70552D01*
X68552Y270079D01*
X80548Y280076D02*
X88546D01*
X84547D01*
Y268080D01*
X98542Y280076D02*
X94544D01*
X92544Y278077D01*
Y270079D01*
X94544Y268080D01*
X98542D01*
X100542Y270079D01*
Y278077D01*
X98542Y280076D01*
X104541Y268080D02*
Y280076D01*
X108539Y276077D01*
X112538Y280076D01*
Y268080D01*
X128533D02*
Y276077D01*
X132531Y280076D01*
X136530Y276077D01*
Y268080D01*
Y274078D01*
X128533D01*
X140529Y268080D02*
Y280076D01*
X144528Y276077D01*
X148526Y280076D01*
Y268080D01*
X152525D02*
Y280076D01*
X158523D01*
X160522Y278077D01*
Y274078D01*
X158523Y272079D01*
X152525D01*
X164521Y280076D02*
Y268080D01*
X172519D01*
X176517Y280076D02*
X180516D01*
X178517D01*
Y268080D01*
X176517D01*
X180516D01*
X194511Y280076D02*
X186514D01*
Y274078D01*
X190513D01*
X186514D01*
Y268080D01*
X198510Y280076D02*
X202509D01*
X200509D01*
Y268080D01*
X198510D01*
X202509D01*
X216504Y280076D02*
X208507D01*
Y268080D01*
X216504D01*
X208507Y274078D02*
X212506D01*
X220503Y268080D02*
Y280076D01*
X226501D01*
X228500Y278077D01*
Y274078D01*
X226501Y272079D01*
X220503D01*
X224502D02*
X228500Y268080D01*
X252493Y278077D02*
X250493Y280076D01*
X246495D01*
X244495Y278077D01*
Y270079D01*
X246495Y268080D01*
X250493D01*
X252493Y270079D01*
X256491Y280076D02*
X260490D01*
X258491D01*
Y268080D01*
X256491D01*
X260490D01*
X266488D02*
Y280076D01*
X272486D01*
X274486Y278077D01*
Y274078D01*
X272486Y272079D01*
X266488D01*
X270487D02*
X274486Y268080D01*
X286482Y278077D02*
X284482Y280076D01*
X280484D01*
X278484Y278077D01*
Y270079D01*
X280484Y268080D01*
X284482D01*
X286482Y270079D01*
X290480Y280076D02*
Y270079D01*
X292480Y268080D01*
X296479D01*
X298478Y270079D01*
Y280076D01*
X302477D02*
X306475D01*
X304476D01*
Y268080D01*
X302477D01*
X306475D01*
X312473Y280076D02*
X320471D01*
X316472D01*
Y268080D01*
M02*
