G04*
G04 #@! TF.GenerationSoftware,Altium Limited,Altium Designer,24.9.1 (31)*
G04*
G04 Layer_Color=16711935*
%FSLAX44Y44*%
%MOMM*%
G71*
G04*
G04 #@! TF.SameCoordinates,2F21DDDD-2005-49F8-8A8E-0C037A8DA06E*
G04*
G04*
G04 #@! TF.FilePolarity,Negative*
G04*
G01*
G75*
%ADD16C,1.8032*%
G04:AMPARAMS|DCode=17|XSize=1.8032mm|YSize=1.8032mm|CornerRadius=0.5016mm|HoleSize=0mm|Usage=FLASHONLY|Rotation=90.000|XOffset=0mm|YOffset=0mm|HoleType=Round|Shape=RoundedRectangle|*
%AMROUNDEDRECTD17*
21,1,1.8032,0.8000,0,0,90.0*
21,1,0.8000,1.8032,0,0,90.0*
1,1,1.0032,0.4000,0.4000*
1,1,1.0032,0.4000,-0.4000*
1,1,1.0032,-0.4000,-0.4000*
1,1,1.0032,-0.4000,0.4000*
%
%ADD17ROUNDEDRECTD17*%
%ADD18C,1.5240*%
%ADD19C,3.2032*%
%ADD30R,0.9561X1.6582*%
%ADD32R,1.5046X1.9062*%
%ADD35R,1.3032X1.8532*%
%ADD36R,1.3032X1.9032*%
%ADD37R,1.4532X2.0032*%
%ADD38R,1.1032X1.8032*%
%ADD39R,1.6032X1.9532*%
D16*
X350075Y235395D02*
D03*
X21590Y198120D02*
D03*
X20700Y88782D02*
D03*
D17*
X350075Y209995D02*
D03*
X21590Y172720D02*
D03*
X20700Y63382D02*
D03*
D18*
X335280Y157480D02*
D03*
Y132080D02*
D03*
X309880D02*
D03*
X238760Y152400D02*
D03*
Y127000D02*
D03*
X213360D02*
D03*
D19*
X368300Y17780D02*
D03*
X19050D02*
D03*
X367030Y275590D02*
D03*
X19050Y274320D02*
D03*
D30*
X130249Y130810D02*
D03*
X156771D02*
D03*
D32*
X239798Y195580D02*
D03*
X209782D02*
D03*
X131042Y57150D02*
D03*
X161058D02*
D03*
X93980Y55880D02*
D03*
X63964D02*
D03*
D35*
X283920Y90170D02*
D03*
X312420D02*
D03*
D36*
X234210Y55880D02*
D03*
X205210D02*
D03*
D37*
X212080Y240030D02*
D03*
X242580D02*
D03*
X160030Y195580D02*
D03*
X129530D02*
D03*
X284470Y53340D02*
D03*
X314970D02*
D03*
X284470Y196850D02*
D03*
X314970D02*
D03*
D38*
X91440Y195580D02*
D03*
X64440D02*
D03*
D39*
X66280Y129540D02*
D03*
X96280D02*
D03*
M02*
