G04*
G04 #@! TF.GenerationSoftware,Altium Limited,Altium Designer,24.9.1 (31)*
G04*
G04 Layer_Physical_Order=1*
G04 Layer_Color=255*
%FSLAX44Y44*%
%MOMM*%
G71*
G04*
G04 #@! TF.SameCoordinates,2F21DDDD-2005-49F8-8A8E-0C037A8DA06E*
G04*
G04*
G04 #@! TF.FilePolarity,Positive*
G04*
G01*
G75*
%ADD20C,1.6000*%
G04:AMPARAMS|DCode=21|XSize=1.6mm|YSize=1.6mm|CornerRadius=0.4mm|HoleSize=0mm|Usage=FLASHONLY|Rotation=90.000|XOffset=0mm|YOffset=0mm|HoleType=Round|Shape=RoundedRectangle|*
%AMROUNDEDRECTD21*
21,1,1.6000,0.8000,0,0,90.0*
21,1,0.8000,1.6000,0,0,90.0*
1,1,0.8000,0.4000,0.4000*
1,1,0.8000,0.4000,-0.4000*
1,1,0.8000,-0.4000,-0.4000*
1,1,0.8000,-0.4000,0.4000*
%
%ADD21ROUNDEDRECTD21*%
%ADD22C,1.3208*%
%ADD23C,3.0000*%
%ADD24C,0.2540*%
%ADD25C,0.1524*%
D20*
X350075Y235395D02*
D03*
X21590Y198120D02*
D03*
X20700Y88782D02*
D03*
D21*
X350075Y209995D02*
D03*
X21590Y172720D02*
D03*
X20700Y63382D02*
D03*
D22*
X335280Y157480D02*
D03*
Y132080D02*
D03*
X309880D02*
D03*
X238760Y152400D02*
D03*
Y127000D02*
D03*
X213360D02*
D03*
D23*
X368300Y17780D02*
D03*
X19050D02*
D03*
X367030Y275590D02*
D03*
X19050Y274320D02*
D03*
D24*
X412750Y-11D02*
X417830Y11D01*
X411480Y293359D02*
X416560Y293381D01*
X410144Y15218D02*
X415290Y0D01*
X420304Y15262D01*
X409006Y278108D02*
X414020Y293370D01*
X419166Y278152D01*
X415002Y66446D02*
X415290Y0D01*
X414020Y293370D02*
X414308Y226924D01*
X384793Y323850D02*
X384827Y318770D01*
X-17Y321310D02*
X17Y316230D01*
X369604Y316129D02*
X384810Y321310D01*
X369537Y326289D02*
X384810Y321310D01*
X0Y318770D02*
X15273Y313791D01*
X0Y318770D02*
X15206Y323951D01*
X272643Y320570D02*
X384810Y321310D01*
X0Y318770D02*
X112167Y319510D01*
D25*
X405221Y214187D02*
X405177Y224344D01*
X415378Y214231D01*
X417917Y214242D01*
X420445Y216793D01*
X420423Y221871D01*
X417873Y224399D01*
X407782Y209120D02*
X405254Y206570D01*
X405276Y201492D01*
X407826Y198964D01*
X417983Y199007D01*
X420511Y201558D01*
X420489Y206636D01*
X417939Y209164D01*
X415400Y209153D01*
X412872Y206603D01*
X412905Y198986D01*
X405309Y193874D02*
X407848Y193885D01*
X407859Y191346D01*
X405320Y191335D01*
X405309Y193874D01*
X418060Y181233D02*
X420610Y178705D01*
X420632Y173627D01*
X418104Y171077D01*
X415565Y171066D01*
X413014Y173594D01*
X413004Y176133D01*
X413014Y173594D01*
X410486Y171044D01*
X407947Y171033D01*
X405397Y173561D01*
X405375Y178639D01*
X407903Y181189D01*
X418126Y165998D02*
X420676Y163470D01*
X420698Y158392D01*
X418170Y155842D01*
X415631Y155831D01*
X413080Y158359D01*
X413069Y160898D01*
X413080Y158359D01*
X410552Y155809D01*
X408013Y155798D01*
X405463Y158326D01*
X405441Y163404D01*
X407969Y165954D01*
X420731Y150774D02*
X420775Y140618D01*
X418236Y140607D01*
X408035Y150720D01*
X405496Y150709D01*
X405650Y115160D02*
X410706Y120261D01*
X415784Y120283D01*
X420885Y115226D01*
X405683Y107543D02*
X415840Y107587D01*
X415850Y105048D01*
X413322Y102498D01*
X405705Y102465D01*
X413322Y102498D01*
X415872Y99969D01*
X413344Y97419D01*
X405727Y97386D01*
X405749Y92308D02*
X415905Y92352D01*
X415916Y89813D01*
X413388Y87263D01*
X405771Y87230D01*
X413388Y87263D01*
X415938Y84734D01*
X413410Y82184D01*
X405793Y82151D01*
X405815Y77073D02*
X410915Y72017D01*
X415993Y72039D01*
X421050Y77139D01*
X114684Y323081D02*
X117206Y325637D01*
X122284Y325671D01*
X124840Y323148D01*
X124857Y320609D01*
X122335Y318053D01*
X119796Y318037D01*
X122335Y318053D01*
X124891Y315531D01*
X124907Y312992D01*
X122385Y310436D01*
X117307Y310403D01*
X114751Y312925D01*
X129919Y323182D02*
X132441Y325738D01*
X137519Y325771D01*
X140075Y323249D01*
X140092Y320710D01*
X137570Y318154D01*
X140125Y315632D01*
X140142Y313092D01*
X137620Y310537D01*
X132542Y310503D01*
X129986Y313025D01*
X129969Y315565D01*
X132491Y318120D01*
X129935Y320643D01*
X129919Y323182D01*
X132491Y318120D02*
X137570Y318154D01*
X145237Y310587D02*
X145220Y313126D01*
X147760Y313143D01*
X147776Y310604D01*
X145237Y310587D01*
X165550Y310721D02*
X165450Y325956D01*
X157882Y318288D01*
X168039Y318355D01*
X173084Y323467D02*
X175606Y326023D01*
X180684Y326056D01*
X183240Y323534D01*
X183257Y320995D01*
X180735Y318439D01*
X183291Y315917D01*
X183307Y313377D01*
X180785Y310822D01*
X175707Y310788D01*
X173151Y313310D01*
X173134Y315849D01*
X175656Y318405D01*
X173100Y320928D01*
X173084Y323467D01*
X175656Y318405D02*
X180735Y318439D01*
X198559Y310939D02*
X188402Y310872D01*
X198492Y321095D01*
X198475Y323634D01*
X195919Y326157D01*
X190841Y326123D01*
X188318Y323568D01*
X223950Y311106D02*
X218838Y316151D01*
X218805Y321230D01*
X223849Y326341D01*
X231567Y311157D02*
X231500Y321313D01*
X234039Y321330D01*
X236595Y318808D01*
X236646Y311190D01*
X236595Y318808D01*
X239118Y321363D01*
X241674Y318841D01*
X241724Y311224D01*
X246802Y311257D02*
X246735Y321414D01*
X249274Y321431D01*
X251830Y318908D01*
X251880Y311291D01*
X251830Y318908D01*
X254352Y321464D01*
X256908Y318942D01*
X256959Y311324D01*
X262037Y311358D02*
X267082Y316470D01*
X267048Y321548D01*
X261936Y326593D01*
M02*
