G04*
G04 #@! TF.GenerationSoftware,Altium Limited,Altium Designer,24.9.1 (31)*
G04*
G04 Layer_Color=32896*
%FSLAX44Y44*%
%MOMM*%
G71*
G04*
G04 #@! TF.SameCoordinates,2F21DDDD-2005-49F8-8A8E-0C037A8DA06E*
G04*
G04*
G04 #@! TF.FilePolarity,Positive*
G04*
G01*
G75*
%ADD13C,0.2000*%
%ADD14C,0.5000*%
D13*
X293170Y82920D02*
X303170D01*
X293170Y97420D02*
X303170D01*
X214710Y63380D02*
X224710D01*
X214710Y48380D02*
X224710D01*
X222330Y232030D02*
X232330D01*
X222330Y248030D02*
X232330D01*
X72940Y202580D02*
X82940D01*
X72940Y188580D02*
X82940D01*
X138779Y122810D02*
X148240D01*
X138779Y138810D02*
X148240D01*
X77280Y121790D02*
X85280D01*
X77280Y137290D02*
X85280D01*
X139780Y203580D02*
X149780D01*
X139780Y187580D02*
X149780D01*
X294720Y45340D02*
X304720D01*
X294720Y61340D02*
X304720D01*
X220305Y186049D02*
X229275D01*
X220305Y205111D02*
X229275D01*
X141565Y66681D02*
X150535D01*
X141565Y47619D02*
X150535D01*
X294720Y188850D02*
X304720D01*
X294720Y204850D02*
X304720D01*
X74488Y46349D02*
X83457D01*
X74488Y65411D02*
X83457D01*
D14*
X268756Y90292D02*
Y105288D01*
X261259D01*
X258759Y102788D01*
Y97790D01*
X261259Y95291D01*
X268756D01*
X263758D02*
X258759Y90292D01*
X253761Y92792D02*
X251262Y90292D01*
X246263D01*
X243764Y92792D01*
Y102788D01*
X246263Y105288D01*
X251262D01*
X253761Y102788D01*
Y100289D01*
X251262Y97790D01*
X243764D01*
X163626Y216022D02*
Y231018D01*
X156128D01*
X153629Y228518D01*
Y223520D01*
X156128Y221021D01*
X163626D01*
X158628D02*
X153629Y216022D01*
X148631Y228518D02*
X146132Y231018D01*
X141133D01*
X138634Y228518D01*
Y226019D01*
X141133Y223520D01*
X138634Y221021D01*
Y218522D01*
X141133Y216022D01*
X146132D01*
X148631Y218522D01*
Y221021D01*
X146132Y223520D01*
X148631Y226019D01*
Y228518D01*
X146132Y223520D02*
X141133D01*
X261416Y50922D02*
Y65918D01*
X253918D01*
X251419Y63418D01*
Y58420D01*
X253918Y55921D01*
X261416D01*
X256418D02*
X251419Y50922D01*
X246421Y65918D02*
X236424D01*
Y63418D01*
X246421Y53422D01*
Y50922D01*
X158546Y151252D02*
Y166248D01*
X151048D01*
X148549Y163748D01*
Y158750D01*
X151048Y156251D01*
X158546D01*
X153547D02*
X148549Y151252D01*
X133554Y166248D02*
X138552Y163748D01*
X143551Y158750D01*
Y153752D01*
X141052Y151252D01*
X136053D01*
X133554Y153752D01*
Y156251D01*
X136053Y158750D01*
X143551D01*
X215696Y76322D02*
Y91318D01*
X208198D01*
X205699Y88818D01*
Y83820D01*
X208198Y81321D01*
X215696D01*
X210697D02*
X205699Y76322D01*
X190704Y91318D02*
X200701D01*
Y83820D01*
X195702Y86319D01*
X193203D01*
X190704Y83820D01*
Y78822D01*
X193203Y76322D01*
X198202D01*
X200701Y78822D01*
X109016Y152522D02*
Y167518D01*
X101518D01*
X99019Y165018D01*
Y160020D01*
X101518Y157521D01*
X109016D01*
X104017D02*
X99019Y152522D01*
X86523D02*
Y167518D01*
X94021Y160020D01*
X84024D01*
X315468Y227076D02*
Y242071D01*
X307970D01*
X305471Y239572D01*
Y234574D01*
X307970Y232074D01*
X315468D01*
X310470D02*
X305471Y227076D01*
X300473Y239572D02*
X297974Y242071D01*
X292975D01*
X290476Y239572D01*
Y237073D01*
X292975Y234574D01*
X295474D01*
X292975D01*
X290476Y232074D01*
Y229575D01*
X292975Y227076D01*
X297974D01*
X300473Y229575D01*
X90436Y217292D02*
Y232288D01*
X82938D01*
X80439Y229788D01*
Y224790D01*
X82938Y222291D01*
X90436D01*
X85437D02*
X80439Y217292D01*
X65444D02*
X75441D01*
X65444Y227289D01*
Y229788D01*
X67943Y232288D01*
X72941D01*
X75441Y229788D01*
X241137Y261742D02*
Y276738D01*
X233639D01*
X231140Y274238D01*
Y269240D01*
X233639Y266741D01*
X241137D01*
X236138D02*
X231140Y261742D01*
X226142D02*
X221143D01*
X223642D01*
Y276738D01*
X226142Y274238D01*
X134579Y90088D02*
X137078Y92588D01*
X142077D01*
X144576Y90088D01*
Y80092D01*
X142077Y77592D01*
X137078D01*
X134579Y80092D01*
X129581Y90088D02*
X127082Y92588D01*
X122083D01*
X119584Y90088D01*
Y87589D01*
X122083Y85090D01*
X124582D01*
X122083D01*
X119584Y82591D01*
Y80092D01*
X122083Y77592D01*
X127082D01*
X129581Y80092D01*
X95441Y34208D02*
X97941Y36708D01*
X102939D01*
X105438Y34208D01*
Y24212D01*
X102939Y21712D01*
X97941D01*
X95441Y24212D01*
X80446Y21712D02*
X90443D01*
X80446Y31709D01*
Y34208D01*
X82945Y36708D01*
X87944D01*
X90443Y34208D01*
X269240Y203118D02*
X271739Y205618D01*
X276738D01*
X279237Y203118D01*
Y193122D01*
X276738Y190622D01*
X271739D01*
X269240Y193122D01*
X264242Y190622D02*
X259243D01*
X261742D01*
Y205618D01*
X264242Y203118D01*
M02*
